<svg xmlns="http://www.w3.org/2000/svg" viewBox="0 0 233.48 233.02"><defs><style>.cls-1{fill:#41c4ff;}.cls-2{fill:#02589b;}.cls-3{fill:#2cb7f6;}</style></defs><title>dart</title><g id="Layer_2" data-name="Layer 2"><g id="Layer_1-2" data-name="Layer 1"><path class="cls-1" d="M176.88,39.48H41.44L117.35.77a30.51,30.51,0,0,1,26.84,6.71C148.73,11.45,162,24.52,176.88,39.48Z"/><path class="cls-2" d="M39.42,40.51V176.58l-38.19-39a29.46,29.46,0,0,1,1.54-21C7.93,105,39.42,40.51,39.42,40.51Z"/><polygon class="cls-3" points="194.09 192.25 54.75 192.25 39.42 176.58 39.42 40.51 41.12 39.65 194.09 192.25"/><polygon class="cls-1" points="192.71 233.02 94.64 233.02 54.75 192.25 191.16 192.25 192.71 233.02"/><path class="cls-2" d="M233.48,96.77v95.48H194.09l-153-152.6.32-.17H176.88C202.65,65.31,233.48,96.77,233.48,96.77Z"/><line class="cls-1" x1="41.12" y1="39.65" x2="40.95" y2="39.48"/></g></g></svg>